# xmcd
#
# Track frame offsets: 
#        182
#        11787
#        22355
#        33665
#        46142
#        55477
#        66545
#        80247
#        89582
#        101930
#        113325
#        126907
#        137440
#        147450
#        159817
#        174945
#        185990
#        197157
#        208072
#        217592
#        229590
#        243545
#        254430
#        264627
#        278775
#        289492
#
# Disc length: 3997 seconds
#
# Revision: 0
# Processed by: cddbd v1.4b42PL0 Copyright (c) Steve Scherf et al.
# Submitted via: ExactAudioCopy v0.90a11
#
DISCID=980f9b1a
DTITLE=R and C Stanley - The Stanley Brothers  The Early Years 1958-1961
DTITLE=Vol.2
DYEAR=1900
DGENRE=
TTITLE0=Choo Choo Comin'
TTITLE1=Carolina Mountain Home
TTITLE2=Trust Each Other
TTITLE3=Beneath The Maple
TTITLE4=Highway Of Regret
TTITLE5=A Little At A Time
TTITLE6=Another Night
TTITLE7=Ridin' That Midnight Train
TTITLE8=Mountain Dew
TTITLE9=Sunny Side Of The Mountain
TTITLE10=Tragic Romance
TTITLE11=Shenandoah Waltz
TTITLE12=Next Sunday, Darling, Is My Birthday
TTITLE13=Sweet Thing
TTITLE14=Sweeter Than The Flowers
TTITLE15=It's Raining Here This Morning
TTITLE16=Shackles And Chains
TTITLE17=Weeping Willow
TTITLE18=Old Rattler
TTITLE19=I'm A Man Of Constant Sorrow
TTITLE20=My Main Trial Is Yet To Come
TTITLE21=Mother Left Me Her Bible
TTITLE22=Jacob's Vision
TTITLE23=I'll Not Be A Stranger
TTITLE24=From The Manger To The Cross
TTITLE25=Four Books In The Bible
EXTD=
EXTT0=
EXTT1=
EXTT2=
EXTT3=
EXTT4=
EXTT5=
EXTT6=
EXTT7=
EXTT8=
EXTT9=
EXTT10=
EXTT11=
EXTT12=
EXTT13=
EXTT14=
EXTT15=
EXTT16=
EXTT17=
EXTT18=
EXTT19=
EXTT20=
EXTT21=
EXTT22=
EXTT23=
EXTT24=
EXTT25=
PLAYORDER=
